<svg id="Layer_5" enable-background="new 0 0 64 64" height="512" viewBox="0 0 64 64" width="512" xmlns="http://www.w3.org/2000/svg"><g><g><g><path d="m38 44v2h-28v-2c0-1.1.9-2 2-2h8 16c1.1 0 2 .9 2 2z" fill="#aab2bd"/></g><g><path d="m36 42h-16v-2c0-1.1.9-2 2-2h.73 9.14 2.13c1.1 0 2 .9 2 2v1z" fill="#ccd1d9"/></g><g><path d="m29.1 10.84-3.68 1.57c-.7-1.44-1.97-2.41-3.42-2.41-2.21 0-4 2.24-4 5 0 .19.01.36.02.55-.61-.35-1.3-.55-2.02-.55-.7 0-1.39.19-1.99.53-.01-.18-.01-.35-.01-.53 0-4.97 3.58-9 8-9 3.08 0 5.76 1.96 7.1 4.84z" fill="#fcd770"/></g><g><path d="m22.41 37.46c-1.06.35-2.21.54-3.41.54-5.52 0-10-4.03-10-9 0-2.95 1.58-5.57 4.01-7.21l2.06 3.43c-1.27.92-2.07 2.27-2.07 3.78 0 2.76 2.69 5 6 5 .43 0 .86-.04 1.27-.11z" fill="#fcd770"/></g><g><path d="m30 12c0 1.78 1.16 3.28 2.76 3.8l-11.15 4.77-2.18-3.63c-.32-.53-.76-.97-1.27-1.29.2-.16.42-.3.66-.41l6.6-2.83 3.68-1.57 1.3-.56c-.26.52-.4 1.1-.4 1.72z" fill="#aab2bd"/></g><g><path d="m18.02 15.56c.05.02.1.05.14.09.51.32.95.76 1.27 1.29l2.18 3.63 9.82 16.37c.2.34.35.69.44 1.06h-9.14l-.32-.54-2.14-3.57-5.2-8.67-2.06-3.43-.44-.73c-1.14-1.89-.52-4.36 1.37-5.49.02-.01.05-.03.07-.04.6-.34 1.29-.53 1.99-.53.72 0 1.41.2 2.02.55z" fill="#aab2bd"/></g><g><path d="m45.98 50c.01.14.02.29.02.44 0 1.01-.34 1.99-.97 2.78l-4.03 5.03c-1.9 2.37-4.77 3.75-7.81 3.75h-23.19c-4.42 0-8-3.58-8-8 0-2.21.9-4.21 2.34-5.66 1.45-1.44 3.45-2.34 5.66-2.34h28 3.56c2.3 0 4.2 1.75 4.42 4z" fill="#ccd1d9"/></g><g><path d="m60 28h-22c-1.1 0-2 .9-2 2v10 1 1c1.1 0 2 .9 2 2v2h3.56c2.3 0 4.2 1.75 4.42 4h14.02c1.1 0 2-.9 2-2v-18c0-1.1-.9-2-2-2z" fill="#d3a06c"/></g><g><path d="m49 28h4v6h-8v-6z" fill="#b27946"/></g><g><path d="m10 50c2.21 0 4 1.79 4 4s-1.79 4-4 4-4-1.79-4-4 1.79-4 4-4z" fill="#969faa"/></g><g><path d="m22 50c2.21 0 4 1.79 4 4s-1.79 4-4 4-4-1.79-4-4 1.79-4 4-4z" fill="#969faa"/></g><g><path d="m34 50c2.21 0 4 1.79 4 4s-1.79 4-4 4-4-1.79-4-4 1.79-4 4-4z" fill="#969faa"/></g><g><path d="m34 8c1.48 0 2.77.8 3.46 2 .34.59.54 1.27.54 2s-.2 1.41-.54 2c-.69 1.2-1.98 2-3.46 2-.43 0-.85-.07-1.24-.2-1.6-.52-2.76-2.02-2.76-3.8 0-.62.14-1.2.4-1.72.63-1.35 2.01-2.28 3.6-2.28z" fill="#fcd770"/></g><g><path d="m59.41 2.59c.37.36.59.86.59 1.41 0 1.1-.9 2-2 2h-9c-.55 0-1 .45-1 1v3h-4v-4c0-2.21 1.79-4 4-4h10c.55 0 1.05.22 1.41.59z" fill="#e6e9ed"/></g><g><path d="m44 14h-6.54c.34-.59.54-1.27.54-2s-.2-1.41-.54-2h6.54 4 2c.55 0 1.05.22 1.41.59.37.36.59.86.59 1.41 0 1.1-.9 2-2 2h-2z" fill="#e6e9ed"/></g><g><path d="m59.41 18.59c.37.36.59.86.59 1.41 0 1.1-.9 2-2 2h-10c-2.21 0-4-1.79-4-4v-4h4v3c0 .55.45 1 1 1h9c.55 0 1.05.22 1.41.59z" fill="#e6e9ed"/></g></g><g><path d="m10 49c-2.757 0-5 2.243-5 5s2.243 5 5 5 5-2.243 5-5-2.243-5-5-5zm0 8c-1.654 0-3-1.346-3-3s1.346-3 3-3 3 1.346 3 3-1.346 3-3 3z"/><circle cx="10" cy="54" r="1"/><path d="m22 49c-2.757 0-5 2.243-5 5s2.243 5 5 5 5-2.243 5-5-2.243-5-5-5zm0 8c-1.654 0-3-1.346-3-3s1.346-3 3-3 3 1.346 3 3-1.346 3-3 3z"/><circle cx="22" cy="54" r="1"/><path d="m34 49c-2.757 0-5 2.243-5 5s2.243 5 5 5 5-2.243 5-5-2.243-5-5-5zm0 8c-1.654 0-3-1.346-3-3s1.346-3 3-3 3 1.346 3 3-1.346 3-3 3z"/><circle cx="34" cy="54" r="1"/><path d="m60 27h-22c-1.654 0-3 1.346-3 3v7.184c-.314-.112-.648-.184-1-.184h-1.424c-.086-.195-.18-.388-.291-.573l-9.231-15.384 9.783-4.193c.375.09.761.15 1.163.15 1.627 0 3.061-.793 3.974-2h5.026v3c0 2.757 2.243 5 5 5h10c1.654 0 3-1.346 3-3s-1.346-3-3-3h-9v-2h1c1.654 0 3-1.346 3-3s-1.346-3-3-3h-1v-2h9c1.654 0 3-1.346 3-3s-1.346-3-3-3h-10c-2.757 0-5 2.243-5 5v3h-5.026c-.913-1.207-2.347-2-3.974-2-1.839 0-3.431 1.009-4.3 2.491l-.165.071c-1.651-2.829-4.454-4.562-7.535-4.562-4.963 0-9 4.486-9 10 0 .009.001.018.001.027-.91.685-1.57 1.637-1.851 2.761-.321 1.285-.125 2.615.546 3.752-2.324 1.886-3.696 4.608-3.696 7.46 0 5.514 4.935 10 11 10 .063 0 .124-.006.187-.007-.114.316-.187.652-.187 1.007v1h-7c-1.654 0-3 1.346-3 3v1.059c-4.493.499-8 4.316-8 8.941 0 4.963 4.037 9 9 9h23.193c3.36 0 6.491-1.505 8.59-4.128l4.024-5.031c.651-.815 1.037-1.809 1.145-2.841h13.048c1.654 0 3-1.346 3-3v-18c0-1.654-1.346-3-3-3zm-14 2h2v2h2v-2h2v4h-6zm-22.7 8-9.874-16.457c-.411-.686-.531-1.492-.336-2.271.194-.779.679-1.434 1.365-1.846.465-.279.998-.426 1.542-.426 1.048 0 2.033.558 2.572 1.456l11.728 19.544zm-8.451-10.197 3.696 6.16c-2.541-.187-4.545-1.882-4.545-3.963 0-.788.311-1.547.849-2.197zm4.249-12.768c.327-1.739 1.499-3.035 2.902-3.035.72 0 1.399.351 1.936.962zm2.918 5.277-1.732-2.886c-.118-.196-.249-.381-.391-.557l9.11-3.904c0 .012-.003.023-.003.035 0 1.437.618 2.724 1.591 3.637zm26.984-.312h9c.552 0 1 .449 1 1s-.448 1-1 1h-10c-1.654 0-3-1.346-3-3v-3h2v2c0 1.103.897 2 2 2zm-4-13c0-1.654 1.346-3 3-3h10c.552 0 1 .449 1 1s-.448 1-1 1h-9c-1.103 0-2 .897-2 2v2h-2zm5 5c.552 0 1 .449 1 1s-.448 1-1 1h-11.101c.066-.323.101-.658.101-1s-.035-.677-.101-1zm-16-2c1.654 0 3 1.346 3 3s-1.346 3-3 3-3-1.346-3-3 1.346-3 3-3zm-12-2c2.282 0 4.389 1.262 5.694 3.351l-1.866.799c-.939-1.341-2.338-2.15-3.828-2.15-2.508 0-4.586 2.231-4.941 5.125-.346-.077-.701-.125-1.062-.125-.321 0-.638.042-.95.102.392-3.99 3.36-7.102 6.953-7.102zm-12 22c0-2.192.984-4.232 2.727-5.733l1.048 1.747c-1.133 1.09-1.775 2.5-1.775 3.986 0 3.309 3.141 6 7 6 .25 0 .5-.012.747-.034l1.114 1.856c-.609.114-1.23.178-1.861.178-4.963 0-9-3.589-9-8zm11 11c0-.552.448-1 1-1h12c.552 0 1 .448 1 1v1h-14zm-9 3h24c.552 0 1 .448 1 1v1h-26v-1c0-.552.448-1 1-1zm32.245 9.592-4.024 5.03c-1.717 2.147-4.279 3.378-7.028 3.378h-23.193c-3.859 0-7-3.141-7-7s3.141-7 7-7h31.559c1.897 0 3.441 1.544 3.441 3.441 0 .779-.268 1.542-.755 2.151zm16.755-4.592c0 .552-.448 1-1 1h-13.2c-.634-2.302-2.741-4-5.241-4h-2.559v-1c0-1.302-.839-2.402-2-2.816v-.179-1.005-10c0-.551.448-1 1-1h6v6h10v-6h6c.552 0 1 .449 1 1z"/><circle cx="34" cy="12" r="1"/><path d="m57 45h2v2h-2z"/><path d="m49 45h2v2h-2z"/><path d="m53 45h2v2h-2z"/><path d="m49 41h10v2h-10z"/></g></g></svg>